<?xml version="1.0" encoding="utf-8"?>
<!-- Generator: Adobe Illustrator 27.9.0, SVG Export Plug-In . SVG Version: 6.00 Build 0)  -->
<svg version="1.1" id="Layer_1" xmlns="http://www.w3.org/2000/svg" xmlns:xlink="http://www.w3.org/1999/xlink" x="0px" y="0px"
	 viewBox="0 0 454.7 129.8" style="enable-background:new 0 0 454.7 129.8;" xml:space="preserve">
<style type="text/css">
	.st0{fill:#584010;}
	.st1{fill:#E2AB4C;}
	.st2{fill:#CD8C3A;}
</style>
<g id="Layer_1_00000083810776257238563010000003485093311810461596_">
</g>
<g id="Layer_2_00000173122512582518992040000017607533116025481609_">
	<path class="st0" d="M10.2,3.1L0,11.2l5.1,61.2l29.6,3.1l-23.5,5.1c0,0-2,6.1-2,13.3s-4.1,28.5,0,29.6c4.1,1,15.3,0,15.3,0
		s89.7-2,95.8-2c6.1,0,155,10.2,170.3,8.2s157-7.1,157-7.1l4.1-5.1L29.6,11.2L10.2,3.1z"/>
	<path class="st1" d="M10.2,3.1c0,0,250.8-1,286.5,0s75.4,2,90.7,2c16.3-1,67.3-5.1,67.3-5.1v32.6c0,0-3.1,15.3-7.1,17.3
		s-6.1,6.1-3.1,8.2c3.1,2,8.2,21.4,8.2,28.5c0,6.1-1,31.6-1,31.6l-109.1,4.1c0,0-62.2,4.1-68.3,4.1s-99.9-6.1-99.9-6.1
		s-63.2-3.1-88.7-2s-69.3,1-69.3,1s-3.1-23.5,0-28.5c2-5.1,2-12.2,6.1-13.3c4.1-1,22.4-5.1,22.4-5.1l-32.6-4.1
		C12.2,68.3,6.1,8.2,10.2,3.1z"/>
	<path class="st2" d="M454.7,11.2c0,0-168.2,4.1-196.8,3.1s-186.6,0-197.8,0s-51,0-51,0v3.1l282.4-1c6.1,1,147.8-3.1,152.9-3.1
		s10.2,1,10.2,1V11.2z"/>
	<path class="st2" d="M454.7,32.6c0,0-164.2-4.1-177.4-4.1s-141.7,1-157,2c-16.3,1-110.1,4.1-110.1,4.1v4.1c0,0,121.3-7.1,130.5-7.1
		c9.2,0,189.6,1,208,2C368.1,34.7,446.6,34.7,454.7,32.6z"/>
	<path class="st2" d="M446.6,50c0,0-69.3,6.1-79.5,6.1s-226.3,4.1-226.3,4.1c-5.1-3.1-114.2-3.1-114.2-3.1c-4.1,0-15.3,2-15.3,2v3.1
		c0,0,142.7-2,157-2c14.3,0,151.9-1,160.1-2c8.2-1,79.5-4.1,85.6-5.1c6.1-1,27.5,1,27.5,1"/>
	<path class="st2" d="M17.3,87.7c0,0,88.7-4.1,95.8-5.1c6.1,0,123.4-2,126.4,0s120.3-4.1,130.5-4.1s59.1,3.1,64.2,3.1
		c6.1,0,17.3,4.1,17.3,4.1v5.1c0,0-31.6-9.2-39.8-9.2c-8.2,0-64.2,2-73.4,2c-9.2,1-121.3,3.1-128.5,2c-7.1-1-122.4,2-125.4,2
		c-3.1,1-47.9,1-53,2s-15.3,1-15.3,1"/>
	<path class="st2" d="M16.3,107.1c0,0,192.7-1,204.9-2c12.2-1,87.7,1,113.2,1c25.5-1,69.3-1,73.4-3.1c4.1-2,43.8,2,43.8,2l-1,3.1
		c0,0-28.5-4.1-32.6-3.1c-4.1,1-108.1,5.1-114.2,4.1c-6.1-1-137.6-1-143.8-1s-112.2,0-118.3,0s-25.5,1-25.5,1L16.3,107.1z"/>
</g>
</svg>
